<?xml version="1.0" encoding="UTF-8"?>
<svg xmlns="http://www.w3.org/2000/svg" xmlns:xlink="http://www.w3.org/1999/xlink" viewBox="0 0 50 50" width="50px" height="50px">
<g id="surface46387764">
<path style=" stroke:none;fill-rule:nonzero;fill:rgb(20.392157%,59.607846%,85.882354%);fill-opacity:1;" d="M 34.554688 3.984375 C 33.773438 3.957031 32.957031 4.09375 32.140625 4.359375 C 30.503906 4.890625 28.789062 5.925781 27.027344 7.355469 C 26.339844 7.917969 25.644531 8.558594 24.945312 9.238281 C 24.261719 8.574219 23.582031 7.949219 22.90625 7.398438 C 21.148438 5.96875 19.4375 4.9375 17.804688 4.40625 C 16.171875 3.878906 14.546875 3.863281 13.214844 4.632812 C 11.878906 5.402344 11.082031 6.816406 10.722656 8.496094 C 10.363281 10.175781 10.402344 12.175781 10.761719 14.410156 C 10.886719 15.191406 11.066406 16.003906 11.269531 16.835938 C 10.507812 17.066406 9.765625 17.308594 9.082031 17.578125 C 7.007812 18.386719 5.292969 19.355469 4.042969 20.507812 C 2.796875 21.660156 1.988281 23.058594 1.988281 24.59375 C 1.988281 26.128906 2.796875 27.527344 4.042969 28.675781 C 5.292969 29.828125 7.007812 30.800781 9.082031 31.609375 C 9.8125 31.894531 10.609375 32.15625 11.429688 32.398438 C 11.132812 33.5 10.894531 34.570312 10.730469 35.585938 C 10.371094 37.824219 10.335938 39.824219 10.691406 41.507812 C 11.050781 43.191406 11.851562 44.613281 13.191406 45.386719 C 14.53125 46.160156 16.164062 46.140625 17.800781 45.609375 C 19.4375 45.082031 21.148438 44.046875 22.910156 42.617188 C 23.59375 42.0625 24.285156 41.425781 24.976562 40.753906 C 25.671875 41.429688 26.367188 42.070312 27.050781 42.625 C 28.8125 44.058594 30.523438 45.089844 32.15625 45.617188 C 33.789062 46.148438 35.410156 46.164062 36.746094 45.394531 C 38.082031 44.625 38.878906 43.210938 39.234375 41.53125 C 39.59375 39.851562 39.554688 37.851562 39.195312 35.613281 C 39.03125 34.597656 38.792969 33.527344 38.496094 32.417969 C 39.34375 32.167969 40.164062 31.90625 40.917969 31.609375 C 42.992188 30.800781 44.707031 29.828125 45.953125 28.675781 C 47.203125 27.527344 48.007812 26.128906 48.007812 24.59375 C 48.007812 23.058594 47.203125 21.660156 45.953125 20.507812 C 44.707031 19.355469 42.992188 18.386719 40.917969 17.578125 C 40.222656 17.304688 39.472656 17.058594 38.695312 16.824219 C 38.902344 15.988281 39.082031 15.167969 39.207031 14.386719 C 39.570312 12.148438 39.605469 10.144531 39.246094 8.460938 C 38.890625 6.78125 38.089844 5.359375 36.746094 4.585938 C 36.078125 4.199219 35.335938 4.011719 34.554688 3.984375 Z M 34.464844 6.019531 C 34.953125 6.03125 35.371094 6.148438 35.726562 6.355469 C 36.441406 6.769531 36.96875 7.570312 37.25 8.890625 C 37.53125 10.210938 37.523438 11.996094 37.191406 14.066406 C 37.074219 14.773438 36.910156 15.523438 36.722656 16.292969 C 34.675781 15.800781 32.4375 15.433594 30.050781 15.222656 C 28.847656 13.558594 27.617188 12.046875 26.375 10.703125 C 27.03125 10.0625 27.683594 9.460938 28.320312 8.945312 C 29.945312 7.621094 31.484375 6.722656 32.769531 6.304688 C 33.410156 6.097656 33.972656 6.007812 34.464844 6.019531 Z M 15.488281 6.023438 C 15.976562 6.011719 16.542969 6.101562 17.183594 6.308594 C 18.472656 6.726562 20.015625 7.628906 21.644531 8.949219 C 22.265625 9.460938 22.90625 10.046875 23.550781 10.671875 C 22.296875 12.027344 21.054688 13.554688 19.847656 15.230469 C 17.46875 15.449219 15.234375 15.816406 13.199219 16.3125 C 13.011719 15.546875 12.851562 14.800781 12.738281 14.09375 C 12.402344 12.023438 12.394531 10.238281 12.679688 8.914062 C 12.960938 7.585938 13.492188 6.78125 14.214844 6.367188 C 14.574219 6.15625 14.996094 6.039062 15.488281 6.027344 Z M 24.976562 12.144531 C 25.792969 13.027344 26.605469 14 27.414062 15.042969 C 26.621094 15.011719 25.816406 14.992188 25 14.992188 C 24.167969 14.992188 23.347656 15.011719 22.539062 15.046875 C 23.347656 14 24.160156 13.03125 24.976562 12.144531 Z M 25 17.011719 C 26.359375 17.011719 27.683594 17.066406 28.972656 17.160156 C 29.863281 18.433594 30.730469 19.785156 31.554688 21.21875 C 32.28125 22.472656 32.9375 23.730469 33.535156 24.96875 C 32.929688 26.226562 32.261719 27.496094 31.527344 28.773438 C 30.878906 29.894531 30.203125 30.957031 29.515625 31.988281 C 28.058594 32.109375 26.550781 32.175781 25 32.175781 C 23.414062 32.175781 21.871094 32.105469 20.378906 31.976562 C 19.703125 30.964844 19.039062 29.914062 18.402344 28.808594 C 17.667969 27.535156 17.003906 26.269531 16.398438 25.015625 C 17.007812 23.753906 17.671875 22.476562 18.410156 21.199219 C 19.234375 19.777344 20.097656 18.433594 20.980469 17.164062 C 22.285156 17.066406 23.625 17.011719 25 17.011719 Z M 31.550781 17.410156 C 33.199219 17.617188 34.746094 17.902344 36.1875 18.246094 C 35.757812 19.644531 35.230469 21.109375 34.59375 22.621094 C 34.179688 21.820312 33.75 21.019531 33.289062 20.21875 C 32.726562 19.246094 32.140625 18.316406 31.550781 17.410156 Z M 18.34375 17.425781 C 17.765625 18.316406 17.195312 19.222656 16.644531 20.179688 C 16.175781 20.992188 15.738281 21.804688 15.320312 22.613281 C 14.6875 21.109375 14.164062 19.65625 13.738281 18.261719 C 15.167969 17.917969 16.707031 17.632812 18.34375 17.425781 Z M 38.164062 18.777344 C 38.871094 18.988281 39.558594 19.214844 40.183594 19.460938 C 42.09375 20.203125 43.605469 21.089844 44.585938 21.992188 C 45.566406 22.894531 45.992188 23.757812 45.992188 24.59375 C 45.992188 25.429688 45.566406 26.292969 44.585938 27.195312 C 43.605469 28.097656 42.09375 28.984375 40.183594 29.726562 C 39.488281 30 38.722656 30.25 37.925781 30.480469 C 37.355469 28.722656 36.628906 26.890625 35.765625 25.015625 C 36.757812 22.863281 37.5625 20.769531 38.164062 18.777344 Z M 11.800781 18.785156 C 12.398438 20.757812 13.191406 22.835938 14.167969 24.964844 C 13.300781 26.847656 12.570312 28.691406 12 30.460938 C 11.230469 30.234375 10.488281 29.992188 9.816406 29.730469 C 7.90625 28.984375 6.394531 28.097656 5.414062 27.195312 C 4.433594 26.292969 4.011719 25.429688 4.011719 24.59375 C 4.011719 23.757812 4.433594 22.894531 5.414062 21.992188 C 6.394531 21.089844 7.90625 20.203125 9.816406 19.460938 C 10.433594 19.21875 11.105469 18.996094 11.804688 18.785156 Z M 25 20 C 22.25 20 20 22.25 20 25 C 20 27.75 22.25 30 25 30 C 27.75 30 30 27.75 30 25 C 30 22.25 27.75 20 25 20 Z M 25 22 C 26.667969 22 28 23.332031 28 25 C 28 26.667969 26.667969 28 25 28 C 23.332031 28 22 26.667969 22 25 C 22 23.332031 23.332031 22 25 22 Z M 34.621094 27.363281 C 35.144531 28.605469 35.597656 29.820312 35.984375 30.992188 C 34.78125 31.269531 33.5 31.503906 32.152344 31.691406 C 32.539062 31.070312 32.921875 30.441406 33.296875 29.792969 C 33.765625 28.980469 34.199219 28.171875 34.621094 27.363281 Z M 15.339844 27.363281 C 15.761719 28.175781 16.199219 28.992188 16.671875 29.808594 C 17.042969 30.449219 17.417969 31.074219 17.800781 31.683594 C 16.457031 31.496094 15.179688 31.261719 13.984375 30.980469 C 14.363281 29.816406 14.820312 28.601562 15.34375 27.363281 Z M 13.40625 32.925781 C 15.214844 33.351562 17.175781 33.683594 19.257812 33.898438 C 20.648438 35.90625 22.09375 37.710938 23.550781 39.289062 C 22.898438 39.921875 22.253906 40.519531 21.621094 41.03125 C 19.996094 42.355469 18.453125 43.25 17.171875 43.667969 C 15.886719 44.085938 14.925781 44.03125 14.214844 43.617188 C 13.5 43.203125 12.972656 42.402344 12.691406 41.082031 C 12.410156 39.761719 12.417969 37.980469 12.75 35.910156 C 12.902344 34.972656 13.125 33.964844 13.40625 32.925781 Z M 36.558594 32.933594 C 36.84375 33.980469 37.070312 34.988281 37.222656 35.933594 C 37.554688 38.003906 37.5625 39.789062 37.277344 41.113281 C 36.996094 42.4375 36.464844 43.246094 35.746094 43.664062 C 35.027344 44.078125 34.058594 44.132812 32.769531 43.71875 C 31.484375 43.300781 29.941406 42.398438 28.3125 41.074219 C 27.679688 40.558594 27.027344 39.957031 26.371094 39.320312 C 27.839844 37.734375 29.296875 35.921875 30.691406 33.902344 C 32.777344 33.6875 34.746094 33.359375 36.558594 32.933594 Z M 21.867188 34.101562 C 22.894531 34.15625 23.933594 34.195312 25 34.195312 C 26.03125 34.195312 27.035156 34.160156 28.03125 34.105469 C 27.015625 35.480469 25.980469 36.726562 24.949219 37.847656 C 23.917969 36.722656 22.882812 35.472656 21.867188 34.101562 Z M 21.867188 34.101562 "/>
</g>
</svg>
